<mxfile host="Electron" agent="Mozilla/5.0 (Windows NT 10.0; Win64; x64) AppleWebKit/537.36 (KHTML, like Gecko) draw.io/28.0.4 Chrome/138.0.7204.97 Electron/37.2.1 Safari/537.36" version="28.0.4">
  <diagram name="Page-1" id="d8_zlxTvHzehxDLYtJqG">
    <mxGraphModel dx="2072" dy="581" grid="1" gridSize="10" guides="1" tooltips="1" connect="1" arrows="1" fold="1" page="1" pageScale="1" pageWidth="1200" pageHeight="1920" math="0" shadow="0">
      <root>
        <mxCell id="0" />
        <mxCell id="1" parent="0" />
        <mxCell id="hoVvTSWG927lSJn28P0V-1" value="" style="rounded=0;whiteSpace=wrap;html=1;fillColor=none;dashed=1;" parent="1" vertex="1">
          <mxGeometry x="-1036" y="283" width="120" height="360" as="geometry" />
        </mxCell>
        <mxCell id="hoVvTSWG927lSJn28P0V-2" value="" style="rounded=1;whiteSpace=wrap;html=1;fillColor=none;fontColor=#000000;strokeColor=#CD7F32;" parent="1" vertex="1">
          <mxGeometry x="-832" y="283" width="140" height="360" as="geometry" />
        </mxCell>
        <mxCell id="hoVvTSWG927lSJn28P0V-4" value="&lt;font style=&quot;font-size: 20px; color: rgb(0, 0, 0);&quot;&gt;&lt;b&gt;&lt;i&gt;Bronze Layer&lt;/i&gt;&lt;/b&gt;&lt;/font&gt;" style="rounded=1;whiteSpace=wrap;html=1;fillColor=#CD7F32;strokeColor=default;gradientColor=none;" parent="1" vertex="1">
          <mxGeometry x="-827" y="243" width="130" height="40" as="geometry" />
        </mxCell>
        <mxCell id="hoVvTSWG927lSJn28P0V-6" value="&lt;font style=&quot;font-size: 15px; color: rgb(0, 0, 0);&quot;&gt;&lt;b&gt;crm_cust_info&lt;/b&gt;&lt;/font&gt;" style="rounded=1;whiteSpace=wrap;html=1;fillColor=#D3ECCD;strokeColor=#D3ECCD;gradientColor=none;align=center;verticalAlign=middle;fontFamily=Helvetica;fontSize=12;fontColor=default;" parent="1" vertex="1">
          <mxGeometry x="-832" y="324" width="140" height="30" as="geometry" />
        </mxCell>
        <mxCell id="qPZdCLvwFA1s4Xsp_Buq-11" style="edgeStyle=orthogonalEdgeStyle;rounded=0;orthogonalLoop=1;jettySize=auto;html=1;" edge="1" parent="1" source="hoVvTSWG927lSJn28P0V-7" target="qPZdCLvwFA1s4Xsp_Buq-4">
          <mxGeometry relative="1" as="geometry" />
        </mxCell>
        <mxCell id="hoVvTSWG927lSJn28P0V-7" value="&lt;b style=&quot;color: rgb(0, 0, 0); font-size: 15px;&quot;&gt;crm_sales_details&lt;/b&gt;" style="rounded=1;whiteSpace=wrap;html=1;fillColor=#D3ECCD;strokeColor=#D3ECCD;gradientColor=none;align=center;verticalAlign=middle;fontFamily=Helvetica;fontSize=12;fontColor=default;" parent="1" vertex="1">
          <mxGeometry x="-832" y="404" width="140" height="30" as="geometry" />
        </mxCell>
        <mxCell id="qPZdCLvwFA1s4Xsp_Buq-10" style="edgeStyle=orthogonalEdgeStyle;rounded=0;orthogonalLoop=1;jettySize=auto;html=1;" edge="1" parent="1" source="hoVvTSWG927lSJn28P0V-8" target="qPZdCLvwFA1s4Xsp_Buq-5">
          <mxGeometry relative="1" as="geometry" />
        </mxCell>
        <mxCell id="hoVvTSWG927lSJn28P0V-8" value="&lt;b style=&quot;color: rgb(0, 0, 0); font-size: 15px;&quot;&gt;crm_prd_info&lt;/b&gt;" style="rounded=1;whiteSpace=wrap;html=1;fillColor=#D3ECCD;strokeColor=#D3ECCD;gradientColor=none;align=center;verticalAlign=middle;fontFamily=Helvetica;fontSize=12;fontColor=default;" parent="1" vertex="1">
          <mxGeometry x="-832" y="364" width="140" height="30" as="geometry" />
        </mxCell>
        <mxCell id="hoVvTSWG927lSJn28P0V-14" style="edgeStyle=orthogonalEdgeStyle;rounded=0;orthogonalLoop=1;jettySize=auto;html=1;" parent="1" source="hoVvTSWG927lSJn28P0V-9" target="hoVvTSWG927lSJn28P0V-6" edge="1">
          <mxGeometry relative="1" as="geometry" />
        </mxCell>
        <mxCell id="hoVvTSWG927lSJn28P0V-15" style="edgeStyle=orthogonalEdgeStyle;rounded=0;orthogonalLoop=1;jettySize=auto;html=1;" parent="1" source="hoVvTSWG927lSJn28P0V-9" target="hoVvTSWG927lSJn28P0V-8" edge="1">
          <mxGeometry relative="1" as="geometry" />
        </mxCell>
        <mxCell id="hoVvTSWG927lSJn28P0V-16" style="edgeStyle=orthogonalEdgeStyle;rounded=0;orthogonalLoop=1;jettySize=auto;html=1;" parent="1" source="hoVvTSWG927lSJn28P0V-9" target="hoVvTSWG927lSJn28P0V-7" edge="1">
          <mxGeometry relative="1" as="geometry" />
        </mxCell>
        <mxCell id="hoVvTSWG927lSJn28P0V-9" value="crm files" style="image;aspect=fixed;html=1;points=[];align=center;fontSize=12;image=img/lib/azure2/general/Folder_Blank.svg;" parent="1" vertex="1">
          <mxGeometry x="-1010.5" y="352.06" width="64" height="51.94" as="geometry" />
        </mxCell>
        <mxCell id="qPZdCLvwFA1s4Xsp_Buq-12" style="edgeStyle=orthogonalEdgeStyle;rounded=0;orthogonalLoop=1;jettySize=auto;html=1;" edge="1" parent="1" source="hoVvTSWG927lSJn28P0V-17" target="qPZdCLvwFA1s4Xsp_Buq-6">
          <mxGeometry relative="1" as="geometry" />
        </mxCell>
        <mxCell id="hoVvTSWG927lSJn28P0V-17" value="&lt;font style=&quot;font-size: 15px; color: rgb(0, 0, 0);&quot;&gt;&lt;b&gt;ep_cust_az12&lt;/b&gt;&lt;/font&gt;" style="rounded=1;whiteSpace=wrap;html=1;fillColor=#D3ECCD;strokeColor=#D3ECCD;gradientColor=none;align=center;verticalAlign=middle;fontFamily=Helvetica;fontSize=12;fontColor=default;" parent="1" vertex="1">
          <mxGeometry x="-832" y="483" width="140" height="30" as="geometry" />
        </mxCell>
        <mxCell id="qPZdCLvwFA1s4Xsp_Buq-14" style="edgeStyle=orthogonalEdgeStyle;rounded=0;orthogonalLoop=1;jettySize=auto;html=1;" edge="1" parent="1" source="hoVvTSWG927lSJn28P0V-18" target="qPZdCLvwFA1s4Xsp_Buq-7">
          <mxGeometry relative="1" as="geometry" />
        </mxCell>
        <mxCell id="hoVvTSWG927lSJn28P0V-18" value="&lt;b style=&quot;color: rgb(0, 0, 0); font-size: 15px;&quot;&gt;erp_px_cat_g1v2&lt;/b&gt;" style="rounded=1;whiteSpace=wrap;html=1;fillColor=#D3ECCD;strokeColor=#D3ECCD;gradientColor=none;align=center;verticalAlign=middle;fontFamily=Helvetica;fontSize=12;fontColor=default;" parent="1" vertex="1">
          <mxGeometry x="-832" y="563" width="140" height="30" as="geometry" />
        </mxCell>
        <mxCell id="qPZdCLvwFA1s4Xsp_Buq-13" style="edgeStyle=orthogonalEdgeStyle;rounded=0;orthogonalLoop=1;jettySize=auto;html=1;" edge="1" parent="1" source="hoVvTSWG927lSJn28P0V-19" target="qPZdCLvwFA1s4Xsp_Buq-8">
          <mxGeometry relative="1" as="geometry" />
        </mxCell>
        <mxCell id="hoVvTSWG927lSJn28P0V-19" value="&lt;b style=&quot;color: rgb(0, 0, 0); font-size: 15px;&quot;&gt;erp_loc_a101&lt;/b&gt;" style="rounded=1;whiteSpace=wrap;html=1;fillColor=#D3ECCD;strokeColor=#D3ECCD;gradientColor=none;align=center;verticalAlign=middle;fontFamily=Helvetica;fontSize=12;fontColor=default;" parent="1" vertex="1">
          <mxGeometry x="-832" y="523" width="140" height="30" as="geometry" />
        </mxCell>
        <mxCell id="hoVvTSWG927lSJn28P0V-20" style="edgeStyle=orthogonalEdgeStyle;rounded=0;orthogonalLoop=1;jettySize=auto;html=1;" parent="1" source="hoVvTSWG927lSJn28P0V-23" target="hoVvTSWG927lSJn28P0V-17" edge="1">
          <mxGeometry relative="1" as="geometry" />
        </mxCell>
        <mxCell id="hoVvTSWG927lSJn28P0V-21" style="edgeStyle=orthogonalEdgeStyle;rounded=0;orthogonalLoop=1;jettySize=auto;html=1;" parent="1" source="hoVvTSWG927lSJn28P0V-23" target="hoVvTSWG927lSJn28P0V-19" edge="1">
          <mxGeometry relative="1" as="geometry" />
        </mxCell>
        <mxCell id="hoVvTSWG927lSJn28P0V-22" style="edgeStyle=orthogonalEdgeStyle;rounded=0;orthogonalLoop=1;jettySize=auto;html=1;" parent="1" source="hoVvTSWG927lSJn28P0V-23" target="hoVvTSWG927lSJn28P0V-18" edge="1">
          <mxGeometry relative="1" as="geometry" />
        </mxCell>
        <mxCell id="hoVvTSWG927lSJn28P0V-23" value="erp files" style="image;aspect=fixed;html=1;points=[];align=center;fontSize=12;image=img/lib/azure2/general/Folder_Blank.svg;" parent="1" vertex="1">
          <mxGeometry x="-1010.5" y="511.06" width="64" height="51.94" as="geometry" />
        </mxCell>
        <mxCell id="hoVvTSWG927lSJn28P0V-24" value="&lt;font style=&quot;font-size: 20px;&quot;&gt;&lt;b&gt;source&lt;/b&gt;&lt;/font&gt;" style="text;html=1;align=center;verticalAlign=middle;whiteSpace=wrap;rounded=0;fillColor=default;gradientColor=none;strokeColor=none;" parent="1" vertex="1">
          <mxGeometry x="-1016" y="263" width="80" height="35" as="geometry" />
        </mxCell>
        <mxCell id="qPZdCLvwFA1s4Xsp_Buq-1" value="" style="rounded=1;whiteSpace=wrap;html=1;fillColor=none;fontColor=#ffffff;strokeColor=#314354;" vertex="1" parent="1">
          <mxGeometry x="-597" y="280" width="140" height="360" as="geometry" />
        </mxCell>
        <mxCell id="qPZdCLvwFA1s4Xsp_Buq-16" value="" style="rounded=1;whiteSpace=wrap;html=1;fillColor=none;fontColor=#ffffff;strokeColor=#FFD700;" vertex="1" parent="1">
          <mxGeometry x="-356" y="280" width="140" height="360" as="geometry" />
        </mxCell>
        <mxCell id="qPZdCLvwFA1s4Xsp_Buq-2" value="&lt;font style=&quot;font-size: 20px; color: rgb(0, 0, 0);&quot;&gt;&lt;b&gt;&lt;i&gt;Silver Layer&lt;/i&gt;&lt;/b&gt;&lt;/font&gt;" style="rounded=1;whiteSpace=wrap;html=1;fillColor=#647687;strokeColor=#314354;fontColor=#ffffff;" vertex="1" parent="1">
          <mxGeometry x="-592" y="240" width="130" height="40" as="geometry" />
        </mxCell>
        <mxCell id="qPZdCLvwFA1s4Xsp_Buq-17" value="&lt;font style=&quot;font-size: 20px; color: rgb(0, 0, 0);&quot;&gt;&lt;b&gt;&lt;i&gt;Gold Layer&lt;/i&gt;&lt;/b&gt;&lt;/font&gt;" style="rounded=1;whiteSpace=wrap;html=1;fillColor=#FFD700;strokeColor=#FFD700;fontColor=#ffffff;" vertex="1" parent="1">
          <mxGeometry x="-351" y="240" width="130" height="40" as="geometry" />
        </mxCell>
        <mxCell id="qPZdCLvwFA1s4Xsp_Buq-3" value="&lt;font style=&quot;font-size: 15px; color: rgb(0, 0, 0);&quot;&gt;&lt;b&gt;crm_cust_info&lt;/b&gt;&lt;/font&gt;" style="rounded=1;whiteSpace=wrap;html=1;fillColor=#D3ECCD;strokeColor=#D3ECCD;fontColor=default;align=center;verticalAlign=middle;fontFamily=Helvetica;fontSize=12;gradientColor=none;" vertex="1" parent="1">
          <mxGeometry x="-597" y="321" width="140" height="30" as="geometry" />
        </mxCell>
        <mxCell id="qPZdCLvwFA1s4Xsp_Buq-18" value="&lt;font style=&quot;font-size: 15px; color: rgb(0, 0, 0);&quot;&gt;&lt;b&gt;fact_sales&lt;/b&gt;&lt;/font&gt;" style="rounded=1;whiteSpace=wrap;html=1;fillColor=#D3ECCD;strokeColor=#D3ECCD;fontColor=default;align=center;verticalAlign=middle;fontFamily=Helvetica;fontSize=12;gradientColor=none;" vertex="1" parent="1">
          <mxGeometry x="-356" y="382" width="140" height="30" as="geometry" />
        </mxCell>
        <mxCell id="qPZdCLvwFA1s4Xsp_Buq-4" value="&lt;b style=&quot;color: rgb(0, 0, 0); font-size: 15px;&quot;&gt;crm_sales_details&lt;/b&gt;" style="rounded=1;whiteSpace=wrap;html=1;fillColor=#D3ECCD;strokeColor=#D3ECCD;fontColor=default;align=center;verticalAlign=middle;fontFamily=Helvetica;fontSize=12;gradientColor=none;" vertex="1" parent="1">
          <mxGeometry x="-597" y="403" width="140" height="31" as="geometry" />
        </mxCell>
        <mxCell id="qPZdCLvwFA1s4Xsp_Buq-19" value="&lt;font color=&quot;#000000&quot;&gt;&lt;span style=&quot;font-size: 15px;&quot;&gt;&lt;b&gt;dim_products&lt;/b&gt;&lt;/span&gt;&lt;/font&gt;" style="rounded=1;whiteSpace=wrap;html=1;fillColor=#D3ECCD;strokeColor=#D3ECCD;fontColor=default;align=center;verticalAlign=middle;fontFamily=Helvetica;fontSize=12;gradientColor=none;" vertex="1" parent="1">
          <mxGeometry x="-356" y="541" width="140" height="31" as="geometry" />
        </mxCell>
        <mxCell id="qPZdCLvwFA1s4Xsp_Buq-5" value="&lt;b style=&quot;color: rgb(0, 0, 0); font-size: 15px;&quot;&gt;crm_prd_info&lt;/b&gt;" style="rounded=1;whiteSpace=wrap;html=1;fillColor=#D3ECCD;strokeColor=#D3ECCD;fontColor=default;align=center;verticalAlign=middle;fontFamily=Helvetica;fontSize=12;gradientColor=none;" vertex="1" parent="1">
          <mxGeometry x="-597" y="364" width="140" height="30" as="geometry" />
        </mxCell>
        <mxCell id="qPZdCLvwFA1s4Xsp_Buq-20" value="&lt;b style=&quot;color: rgb(0, 0, 0); font-size: 15px;&quot;&gt;dim_Customers&lt;/b&gt;" style="rounded=1;whiteSpace=wrap;html=1;fillColor=#D3ECCD;strokeColor=#D3ECCD;fontColor=default;align=center;verticalAlign=middle;fontFamily=Helvetica;fontSize=12;gradientColor=none;" vertex="1" parent="1">
          <mxGeometry x="-356" y="462" width="140" height="30" as="geometry" />
        </mxCell>
        <mxCell id="qPZdCLvwFA1s4Xsp_Buq-6" value="&lt;font style=&quot;font-size: 15px; color: rgb(0, 0, 0);&quot;&gt;&lt;b&gt;ep_cust_az12&lt;/b&gt;&lt;/font&gt;" style="rounded=1;whiteSpace=wrap;html=1;fillColor=#D3ECCD;strokeColor=#D3ECCD;fontColor=default;align=center;verticalAlign=middle;fontFamily=Helvetica;fontSize=12;gradientColor=none;" vertex="1" parent="1">
          <mxGeometry x="-597" y="483" width="140" height="30" as="geometry" />
        </mxCell>
        <mxCell id="qPZdCLvwFA1s4Xsp_Buq-7" value="&lt;b style=&quot;color: rgb(0, 0, 0); font-size: 15px;&quot;&gt;erp_px_cat_g1v2&lt;/b&gt;" style="rounded=1;whiteSpace=wrap;html=1;fillColor=#D3ECCD;strokeColor=#D3ECCD;fontColor=default;align=center;verticalAlign=middle;fontFamily=Helvetica;fontSize=12;gradientColor=none;" vertex="1" parent="1">
          <mxGeometry x="-597" y="563" width="140" height="30" as="geometry" />
        </mxCell>
        <mxCell id="qPZdCLvwFA1s4Xsp_Buq-8" value="&lt;b style=&quot;color: rgb(0, 0, 0); font-size: 15px;&quot;&gt;erp_loc_a101&lt;/b&gt;" style="rounded=1;whiteSpace=wrap;html=1;fillColor=#D3ECCD;strokeColor=#D3ECCD;fontColor=default;align=center;verticalAlign=middle;fontFamily=Helvetica;fontSize=12;gradientColor=none;" vertex="1" parent="1">
          <mxGeometry x="-597" y="523" width="140" height="30" as="geometry" />
        </mxCell>
        <mxCell id="qPZdCLvwFA1s4Xsp_Buq-9" style="edgeStyle=orthogonalEdgeStyle;rounded=0;orthogonalLoop=1;jettySize=auto;html=1;entryX=0.036;entryY=0.164;entryDx=0;entryDy=0;entryPerimeter=0;" edge="1" parent="1" source="hoVvTSWG927lSJn28P0V-6" target="qPZdCLvwFA1s4Xsp_Buq-1">
          <mxGeometry relative="1" as="geometry" />
        </mxCell>
        <mxCell id="qPZdCLvwFA1s4Xsp_Buq-24" value="" style="endArrow=classic;html=1;rounded=0;exitX=1.014;exitY=0.15;exitDx=0;exitDy=0;exitPerimeter=0;entryX=0.014;entryY=0.553;entryDx=0;entryDy=0;entryPerimeter=0;" edge="1" parent="1" source="qPZdCLvwFA1s4Xsp_Buq-1" target="qPZdCLvwFA1s4Xsp_Buq-16">
          <mxGeometry width="50" height="50" relative="1" as="geometry">
            <mxPoint x="-650" y="1030" as="sourcePoint" />
            <mxPoint x="-600" y="980" as="targetPoint" />
          </mxGeometry>
        </mxCell>
        <mxCell id="qPZdCLvwFA1s4Xsp_Buq-25" value="" style="endArrow=classic;html=1;rounded=0;exitX=1;exitY=0.619;exitDx=0;exitDy=0;exitPerimeter=0;entryX=-0.007;entryY=0.556;entryDx=0;entryDy=0;entryPerimeter=0;" edge="1" parent="1" source="qPZdCLvwFA1s4Xsp_Buq-1" target="qPZdCLvwFA1s4Xsp_Buq-16">
          <mxGeometry width="50" height="50" relative="1" as="geometry">
            <mxPoint x="-420" y="750" as="sourcePoint" />
            <mxPoint x="-319" y="895" as="targetPoint" />
          </mxGeometry>
        </mxCell>
        <mxCell id="qPZdCLvwFA1s4Xsp_Buq-26" value="" style="endArrow=classic;html=1;rounded=0;exitX=0.993;exitY=0.728;exitDx=0;exitDy=0;exitPerimeter=0;entryX=-0.014;entryY=0.569;entryDx=0;entryDy=0;entryPerimeter=0;" edge="1" parent="1" source="qPZdCLvwFA1s4Xsp_Buq-1" target="qPZdCLvwFA1s4Xsp_Buq-16">
          <mxGeometry width="50" height="50" relative="1" as="geometry">
            <mxPoint x="-430" y="620" as="sourcePoint" />
            <mxPoint x="-329" y="765" as="targetPoint" />
          </mxGeometry>
        </mxCell>
        <mxCell id="qPZdCLvwFA1s4Xsp_Buq-27" value="" style="endArrow=classic;html=1;rounded=0;exitX=1.007;exitY=0.397;exitDx=0;exitDy=0;exitPerimeter=0;entryX=0;entryY=0.5;entryDx=0;entryDy=0;" edge="1" parent="1" source="qPZdCLvwFA1s4Xsp_Buq-1" target="qPZdCLvwFA1s4Xsp_Buq-18">
          <mxGeometry width="50" height="50" relative="1" as="geometry">
            <mxPoint x="-420" y="743" as="sourcePoint" />
            <mxPoint x="-320" y="720" as="targetPoint" />
          </mxGeometry>
        </mxCell>
        <mxCell id="qPZdCLvwFA1s4Xsp_Buq-28" value="" style="endArrow=classic;html=1;rounded=0;exitX=1.014;exitY=0.292;exitDx=0;exitDy=0;exitPerimeter=0;entryX=0.007;entryY=0.775;entryDx=0;entryDy=0;entryPerimeter=0;" edge="1" parent="1" source="qPZdCLvwFA1s4Xsp_Buq-1" target="qPZdCLvwFA1s4Xsp_Buq-16">
          <mxGeometry width="50" height="50" relative="1" as="geometry">
            <mxPoint x="-400" y="710" as="sourcePoint" />
            <mxPoint x="-299" y="855" as="targetPoint" />
          </mxGeometry>
        </mxCell>
        <mxCell id="qPZdCLvwFA1s4Xsp_Buq-29" value="" style="endArrow=classic;html=1;rounded=0;exitX=1.014;exitY=0.839;exitDx=0;exitDy=0;exitPerimeter=0;entryX=0;entryY=0.5;entryDx=0;entryDy=0;" edge="1" parent="1" source="qPZdCLvwFA1s4Xsp_Buq-1" target="qPZdCLvwFA1s4Xsp_Buq-19">
          <mxGeometry width="50" height="50" relative="1" as="geometry">
            <mxPoint x="-410" y="780" as="sourcePoint" />
            <mxPoint x="-309" y="925" as="targetPoint" />
          </mxGeometry>
        </mxCell>
        <mxCell id="qPZdCLvwFA1s4Xsp_Buq-31" value="&lt;i&gt;Data Flow Diagram&lt;/i&gt;" style="text;strokeColor=none;fillColor=#03A6A1;html=1;fontSize=24;fontStyle=1;verticalAlign=middle;align=center;rounded=1;" vertex="1" parent="1">
          <mxGeometry x="-841" y="159" width="480" height="40" as="geometry" />
        </mxCell>
      </root>
    </mxGraphModel>
  </diagram>
</mxfile>
